PathFileType  4	(X/Y/Z) C:\Users\HPL 1\Documents/Temp/Sub278498/Files_W_HJCs/
DataRate	CameraRate	NumFrames	NumMarkers	Units	OrigDataRate	OrigDataStartFrame	OrigNumFrames
50.0	50.0	8	42	mm	50.0	428	684
Frame#	Time  	r_knee			r_shank(antsup)			r_ankle			r_calc			r_5meta			r_toe			L_knee			L_shank(ant_sup)			L_ankle			L_calc			L_5meta			L_toe			r_mknee			r_mankle			L_mknee			L_mankle			r_sh2			r_sh3			r_sh4			L_sh2			L_sh3			r_thigh1			r_thigh2			r_thigh3			r_thigh4			r_thigh5			L_thigh1			L_thigh2			L_thigh3			L_thigh4			r.ASIS			r.PSIS			L.ASIS			L.PSIS			C7			R_Shoulder			L_Shoulder			Sternum			R_HJC			L_HJC			R_HJC_reg			L_HJC_reg			
		X1	Y1	Z1	X2	Y2	Z2	X3	Y3	Z3	X4	Y4	Z4	X5	Y5	Z5	X6	Y6	Z6	X7	Y7	Z7	X8	Y8	Z8	X9	Y9	Z9	X10	Y10	Z10	X11	Y11	Z11	X12	Y12	Z12	X13	Y13	Z13	X14	Y14	Z14	X15	Y15	Z15	X16	Y16	Z16	X17	Y17	Z17	X18	Y18	Z18	X19	Y19	Z19	X20	Y20	Z20	X21	Y21	Z21	X22	Y22	Z22	X23	Y23	Z23	X24	Y24	Z24	X25	Y25	Z25	X26	Y26	Z26	X27	Y27	Z27	X28	Y28	Z28	X29	Y29	Z29	X30	Y30	Z30	X31	Y31	Z31	X32	Y32	Z32	X33	Y33	Z33	X34	Y34	Z34	X35	Y35	Z35	X36	Y36	Z36	X37	Y37	Z37	X38	Y38	Z38	X39	Y39	Z39	X40	Y40	Z40	X41	Y41	Z41	X42	Y42	Z42	

428	8.54000	756.51288	571.23792	-256.07690	774.21985	481.59250	-252.80663	709.05286	110.78383	-283.73022	621.20667	68.80971	-332.88910	817.29456	39.32711	-249.68077	861.07562	73.66432	-309.55444	779.04254	586.53107	-536.08612	800.44061	467.51535	-527.97424	676.78583	134.99640	-524.06628	593.20447	96.33204	-478.14023	792.34705	54.10638	-549.93433	831.79871	83.83830	-488.76883	761.52075	558.89966	-383.65933	725.15887	119.00375	-378.63159	787.70349	581.09680	-409.03647	698.88135	141.49260	-430.78464	766.95575	362.08905	-261.07898	698.36670	482.92532	-246.10266	684.04865	367.80316	-247.72754	717.92322	496.28680	-555.03949	691.28229	376.68768	-554.10315	798.19550	898.91406	-226.54744	809.94098	784.44336	-231.22787	765.35681	747.40326	-223.48822	684.41193	881.01526	-213.47142	702.00519	765.56415	-231.95374	834.40466	863.16003	-558.91339	853.62677	726.59326	-546.83063	721.46088	847.49731	-584.34796	742.48810	715.13696	-561.65588	818.54456	1084.69861	-261.42365	630.00482	1133.63977	-345.71756	821.95428	1113.02393	-514.39301	634.61316	1139.29028	-428.45245	722.35992	1621.98779	-399.73529	780.25385	1593.64648	-230.87218	783.45618	1574.88501	-576.51129	852.18707	1533.22107	-392.51779	745.87958	1000.47805	-280.07552	749.17602	1026.17419	-515.01605	741.73334	1020.09237	-305.99831	751.05583	1031.52313	-473.36782
429	8.56000	757.09808	571.18170	-256.13211	774.73602	481.50458	-252.84616	709.05157	110.77413	-283.74997	621.20953	68.73474	-332.99551	817.30573	39.31520	-249.67670	861.08606	73.63558	-309.55435	781.93048	586.42407	-535.55573	803.98676	467.55927	-527.25031	682.35345	134.22409	-523.38000	598.85638	95.35343	-478.00137	798.63129	54.03322	-548.58618	837.54102	84.01500	-487.45633	762.12134	558.86621	-383.73364	725.42615	118.98186	-378.60767	790.24274	581.21942	-408.40552	703.37598	140.58368	-430.17609	767.30469	362.01526	-261.15454	698.82275	482.85397	-246.04472	684.40552	367.80240	-247.68037	721.33307	495.78149	-554.70740	695.43146	375.96637	-553.69330	798.45917	898.92505	-226.42459	810.38324	784.51184	-231.20927	765.80066	747.37415	-223.48483	684.72815	880.91486	-213.45505	702.39105	765.51257	-231.88597	835.73212	863.23920	-558.47717	855.53107	726.91187	-546.42371	723.05017	846.95563	-584.26855	744.56836	714.81763	-561.47662	818.46320	1084.73767	-261.53891	629.95276	1133.31970	-346.01807	822.13556	1112.95605	-514.37134	634.61395	1138.84888	-428.72775	721.83014	1621.88684	-400.21625	779.71625	1593.69336	-231.33231	782.91852	1574.62195	-576.91309	851.60883	1533.23376	-392.98068	745.99009	1000.37177	-280.16134	749.51936	1025.95843	-515.11044	741.82791	1020.15367	-306.02846	751.25542	1031.33674	-473.31323
430	8.58000	757.49872	571.10480	-256.13174	775.09467	481.42307	-252.84660	707.95844	110.43288	-282.06259	621.08478	68.84490	-333.04095	817.27008	39.30727	-249.67363	861.10260	73.55556	-309.58337	784.50659	586.33057	-535.20667	806.84705	467.62259	-526.84827	687.34705	133.63708	-523.06299	603.82428	94.14198	-477.53192	804.12140	54.04910	-547.83405	842.71283	84.36076	-486.45447	762.59607	558.76575	-383.75406	725.30414	118.99133	-378.68661	792.60760	581.24689	-408.11990	708.30487	140.46788	-429.69971	767.47784	361.88611	-261.16440	699.12390	482.82611	-246.07629	684.62573	367.77264	-247.79340	724.01617	495.45184	-554.30396	698.91895	375.60962	-553.44379	798.63989	898.90833	-226.44583	810.75787	784.53119	-231.13980	766.24359	747.38501	-223.47391	685.00659	880.84216	-213.49747	702.73303	765.44855	-231.83051	837.13104	863.42676	-558.18933	857.42493	727.08423	-545.99457	724.52533	846.46912	-584.24902	746.71497	714.44904	-561.21509	818.58600	1084.95703	-261.46078	630.01764	1133.00696	-346.30820	822.42151	1112.90417	-514.36060	634.89026	1138.33630	-429.00385	721.26776	1621.65649	-400.65268	779.12317	1593.64697	-231.67448	782.36731	1574.37549	-577.29291	851.14465	1533.13269	-393.31998	746.34208	1000.39838	-280.10315	750.10892	1025.68929	-515.08058	741.96685	1020.28450	-305.98480	751.82528	1031.06698	-473.29715
431	8.60000	757.78485	571.08557	-256.22202	775.33276	481.41473	-252.88562	707.98682	110.44413	-282.11133	621.23004	68.82606	-333.02777	817.29541	39.32738	-249.66264	861.14075	73.58931	-309.56403	786.60669	586.31012	-534.97968	809.54840	467.82343	-526.64581	691.56018	133.19691	-522.72546	608.29041	93.31198	-477.27234	808.71826	54.14305	-547.68152	847.17255	84.48880	-486.44199	763.08636	558.76178	-383.81284	725.26843	118.91409	-378.71387	796.91345	582.34064	-408.87448	712.60712	139.93335	-429.50583	767.64453	361.92780	-261.22784	699.37799	482.81409	-246.14552	684.83795	367.70441	-247.91965	726.53882	495.11511	-554.06464	702.09552	375.27081	-553.14758	799.01965	898.92218	-226.54477	811.06641	784.55402	-231.20695	766.60193	747.43396	-223.54211	685.39423	880.84558	-213.45940	703.05933	765.42566	-231.86009	838.24915	863.56946	-558.15869	858.99078	727.26312	-545.82373	725.57727	846.17285	-584.30725	748.37476	714.38812	-561.13580	818.71759	1085.05200	-261.43170	630.07220	1132.75378	-346.56628	822.66687	1112.86536	-514.41797	635.02905	1137.92676	-429.21100	720.67572	1621.63220	-401.10336	778.60199	1593.65149	-231.95111	781.67303	1574.16003	-577.57782	850.57751	1533.10986	-393.59793	746.61879	1000.36598	-280.12201	750.53929	1025.48874	-515.11497	742.13929	1020.36024	-305.91496	752.17775	1030.83639	-473.28443
432	8.62000	757.95374	571.05914	-256.33206	775.53778	481.38037	-253.00734	708.00372	110.47837	-282.14142	621.25220	68.85509	-333.05380	817.30670	39.32318	-249.69173	861.17139	73.65845	-309.55411	788.24695	586.34863	-534.98248	811.72162	467.93466	-526.56494	695.16779	132.87804	-522.66064	612.03888	92.63914	-476.72012	812.36670	54.24478	-547.99152	851.04364	84.77670	-486.72977	763.21039	558.76013	-383.93521	725.27484	118.87639	-378.77258	796.47772	581.39758	-407.84341	716.18530	139.67863	-429.40659	767.73547	361.86542	-261.31665	699.51129	482.87302	-246.24469	684.93268	367.73077	-248.08003	728.59296	494.95679	-553.89789	704.49915	374.89786	-553.07623	799.30627	898.90741	-226.67751	811.42743	784.58148	-231.42207	767.01294	747.41986	-223.71432	685.84418	880.94830	-213.61115	703.43732	765.43591	-231.92509	838.99207	863.63049	-558.30255	860.10284	727.34534	-545.94324	726.52942	845.97882	-584.32367	749.49628	714.06628	-561.20367	818.90741	1085.16431	-261.50220	630.28961	1132.38098	-346.73859	822.90472	1112.82104	-514.45374	635.22760	1137.54126	-429.41925	720.23566	1621.47229	-401.34634	778.22968	1593.63672	-232.18063	781.18610	1574.03699	-577.86841	850.07233	1533.07520	-393.83881	747.02622	1000.30363	-280.16102	751.00839	1025.28817	-515.16768	742.56436	1020.25174	-305.94944	752.55854	1030.69582	-473.28989
433	8.64000	758.20233	571.04651	-256.41782	775.74310	481.39410	-253.07977	708.01678	110.50372	-282.13449	621.27637	68.88372	-333.05920	817.32715	39.36846	-249.67764	861.25171	73.75356	-309.53616	789.71942	586.39166	-535.05322	813.62354	468.06323	-526.73682	697.90656	132.60210	-522.65601	615.00494	92.18581	-476.41882	815.24042	54.34048	-548.50610	853.91052	84.72281	-487.55139	763.39838	558.84387	-384.05408	725.28076	118.86338	-378.80945	798.07013	581.53339	-407.99509	719.34613	139.37280	-429.45132	767.91412	361.84390	-261.49094	699.78198	482.92786	-246.33141	685.06036	367.83023	-248.14458	730.28723	494.76849	-553.94629	706.65314	374.60062	-553.07452	799.76685	898.96313	-226.87517	811.81555	784.60919	-231.49026	767.45453	747.46582	-223.78380	686.41443	880.99213	-213.42764	703.87341	765.45667	-231.99724	839.62659	863.69653	-558.54974	861.17334	727.55841	-546.14496	727.13544	845.76257	-584.25629	750.31787	713.96411	-561.17175	819.16095	1085.28088	-261.57129	630.52533	1132.12415	-346.80368	823.11823	1112.87219	-514.64612	635.46136	1137.25537	-429.46997	719.85956	1621.41199	-401.48727	777.87878	1593.60547	-232.40149	780.86066	1573.98572	-578.04401	849.71777	1533.05396	-394.01224	747.49177	1000.27858	-280.22463	751.38116	1025.19995	-515.23955	742.93062	1020.19919	-306.01682	752.92730	1030.59118	-473.43642
434	8.66000	758.56201	571.01733	-256.46164	776.02502	481.32608	-253.10313	708.02917	110.48021	-282.22147	621.28455	68.90313	-333.08310	817.30444	39.34447	-249.69424	861.24371	73.78014	-309.50900	790.69641	586.40924	-535.34485	814.84393	468.12497	-527.00623	699.97906	132.36565	-522.84143	617.18463	91.88139	-476.38889	817.45215	54.35229	-549.04224	856.31158	84.82012	-488.12057	763.71863	558.86871	-384.11807	725.33582	118.89803	-378.86108	799.39508	581.33130	-408.30383	721.78882	139.15768	-429.59644	768.14093	361.82715	-261.45758	700.09924	482.91571	-246.36014	685.22028	367.80548	-248.19623	731.49548	494.74332	-553.99323	708.18427	374.51993	-553.18127	800.19971	899.06226	-227.03404	812.45178	784.70013	-231.77773	768.02618	747.49542	-223.91788	686.98694	881.06952	-213.02992	704.52271	765.54504	-231.86702	840.05365	863.74396	-558.93146	861.85236	727.68231	-546.52460	727.45856	845.65466	-584.32574	750.90216	713.75793	-561.22345	819.52936	1085.40857	-261.65378	630.75970	1131.91650	-346.78760	823.47369	1112.92700	-514.84900	635.66626	1136.94873	-429.49753	719.65387	1621.34717	-401.62570	777.52899	1593.60327	-232.55501	780.64056	1573.96252	-578.22736	849.48724	1533.06970	-394.16168	748.03783	1000.27421	-280.26258	751.79989	1025.11540	-515.28806	743.38651	1020.27121	-305.99980	753.32358	1030.46280	-473.50918
435	8.68000	759.18805	570.94824	-256.46948	776.34906	481.26416	-253.13353	708.07202	110.52144	-282.20508	621.30261	68.95688	-333.08340	817.30707	39.29879	-249.69511	861.39307	73.77375	-309.60095	791.38165	586.43591	-535.67078	815.65613	468.15546	-527.48206	701.47894	132.28490	-523.28217	618.63586	91.61723	-476.63480	818.95825	54.31332	-549.61780	857.74548	84.71983	-488.85870	764.25549	558.85736	-384.15570	725.38196	118.90748	-378.85458	802.96478	582.49664	-409.61075	723.52924	139.05191	-430.14838	768.44849	361.78564	-261.49432	700.52167	482.93472	-246.30534	685.53137	367.87250	-248.19258	732.25244	494.77313	-554.12860	709.07965	374.48227	-553.36267	800.81836	899.03162	-227.17957	813.11279	784.78839	-231.97882	768.72272	747.53729	-223.93217	687.53772	881.02838	-213.06421	705.10773	765.53308	-231.64702	840.50043	863.75458	-559.32825	862.52777	727.76306	-547.15985	727.71771	845.64429	-584.43640	751.48517	713.85583	-561.37030	819.84924	1085.45959	-261.76401	631.02661	1131.78638	-346.80334	823.78326	1112.99194	-514.94653	635.96558	1136.70593	-429.40356	719.40192	1621.23633	-401.78156	777.13556	1593.58191	-232.76817	780.46887	1573.94690	-578.35706	849.33423	1533.12390	-394.32193	748.51346	1000.23597	-280.30090	752.17250	1025.08079	-515.32762	743.69331	1020.41066	-306.04307	753.70936	1030.38733	-473.55322
